<?xml version="1.0" standalone="no"?>
<!DOCTYPE svg PUBLIC "-//W3C//DTD SVG 20010904//EN"
 "http://www.w3.org/TR/2001/REC-SVG-20010904/DTD/svg10.dtd">
<svg version="1.0" xmlns="http://www.w3.org/2000/svg"
 width="700.000000pt" height="700.000000pt" viewBox="0 0 700.000000 700.000000"
 preserveAspectRatio="xMidYMid meet">
<metadata>
Created by potrace 1.14, written by Peter Selinger 2001-2017
</metadata>
<g transform="translate(0.000000,700.000000) scale(0.100000,-0.100000)"
fill="#000000" stroke="none">
<path d="M4980 6812 c-6 -2 -10 -147 -10 -408 0 -378 -1 -404 -17 -405 -10 0
-193 -1 -408 -2 l-390 -2 -1 -232 -1 -233 409 0 408 0 0 -409 0 -408 233 1
232 1 1 405 0 405 404 3 c223 1 406 6 409 11 5 7 6 399 2 447 -1 8 -116 11
-398 10 -270 -1 -400 2 -407 10 -8 7 -11 138 -10 407 0 353 -2 397 -15 398
-43 3 -432 4 -441 1z"/>
<path d="M1915 5994 c-346 -63 -638 -276 -798 -583 -40 -78 -79 -178 -93 -242
-10 -49 -14 -65 -23 -114 -12 -61 -9 -3703 3 -3755 58 -250 153 -428 316 -590
167 -168 357 -266 598 -309 91 -16 192 -18 1318 -16 1300 1 1279 1 1439 52
366 117 638 406 743 791 l26 97 3 1578 4 1577 -234 0 -234 0 0 -1517 c0 -835
-3 -1538 -7 -1563 -25 -170 -134 -344 -273 -436 -63 -42 -168 -88 -228 -101
-22 -4 -591 -8 -1265 -8 l-1225 0 -70 23 c-174 59 -310 172 -383 322 -81 165
-75 3 -75 1975 0 968 3 1784 7 1813 26 210 169 401 369 496 125 59 115 58
1145 59 l942 1 0 233 0 233 -967 -1 c-734 -2 -985 -5 -1038 -15z"/>
<path d="M1752 4491 l3 -175 1395 0 1395 0 3 175 2 176 -1400 0 -1400 0 2
-176z"/>
<path d="M1750 3794 c0 -170 0 -172 23 -175 12 -2 641 -4 1397 -4 l1375 1 3
175 2 175 -1400 0 -1400 0 0 -172z"/>
<path d="M1750 3094 c0 -129 3 -173 13 -176 6 -2 635 -3 1397 -3 l1385 1 3
175 2 176 -1400 0 -1400 0 0 -173z"/>
<path d="M1750 2395 c0 -130 3 -174 13 -177 6 -2 635 -3 1397 -3 l1385 1 3
176 2 175 -1400 0 -1400 0 0 -172z"/>
<path d="M1752 1691 l3 -175 1395 0 1395 0 3 175 2 176 -1400 0 -1400 0 2
-176z"/>
</g>
</svg>
